<?xml version="1.0" encoding="utf-8"?>
<!-- Generator: Adobe Illustrator 24.3.0, SVG Export Plug-In . SVG Version: 6.00 Build 0)  -->
<svg version="1.1" id="Ebene_1" xmlns="http://www.w3.org/2000/svg" xmlns:xlink="http://www.w3.org/1999/xlink" x="0px" y="0px"
	 viewBox="0 0 70 70" style="enable-background:new 0 0 70 70;" xml:space="preserve">
<style type="text/css">
	.st0{fill:#3795D2;}
</style>
<path class="st0" d="M50.6,26.3c-0.6,0-1.1-0.2-1.6-0.5c-0.5-0.3-0.8-0.8-1.1-1.3c-0.2-0.5-0.3-1.1-0.2-1.7c0.1-0.6,0.4-1.1,0.8-1.5
	l8.7-8.7c0-0.1,0.1-0.1,0.2-0.2c0.4-0.3,0.8-0.8,1-1.2c0.2-0.5,0.4-1,0.4-1.6c0-0.5-0.1-1.1-0.2-1.6c-0.2-0.5-0.5-1-0.9-1.4
	c-0.4-0.4-0.8-0.7-1.3-0.9c-0.5-0.2-1-0.3-1.6-0.3c-0.5,0-1.1,0.2-1.6,0.4c-0.5,0.2-0.9,0.6-1.3,1l-0.2,0.2l-8.7,8.7
	c-0.3,0.3-0.6,0.5-0.9,0.7c-0.4,0.2-0.7,0.2-1.1,0.3c-0.4,0-0.8-0.1-1.1-0.2c-0.4-0.1-0.7-0.4-1-0.6c-0.3-0.3-0.5-0.6-0.6-1
	c-0.1-0.4-0.2-0.8-0.2-1.1c0-0.4,0.1-0.8,0.3-1.1c0.2-0.4,0.4-0.7,0.7-0.9l8.8-8.9c0.1-0.1,0.1-0.1,0.2-0.2C49.8,0.9,52.2,0,54.6,0
	c1.9,0,3.8,0.6,5.3,1.6c1.6,1,2.8,2.5,3.6,4.3c0.8,1.7,1,3.7,0.6,5.5c-0.3,1.9-1.2,3.6-2.5,5c-0.1,0.1-0.1,0.1-0.2,0.2l-8.8,8.8
	C52.2,26,51.4,26.3,50.6,26.3z"/>
<path class="st0" d="M50.6,28.3L36,13.7c-0.3-0.3-0.5-0.6-0.6-0.9c-0.1-0.4-0.2-0.7-0.2-1.1s0.1-0.8,0.2-1.1
	c0.1-0.4,0.4-0.7,0.6-0.9c0.3-0.3,0.6-0.5,0.9-0.6c0.4-0.1,0.7-0.2,1.1-0.2c0.4,0,0.8,0.1,1.1,0.2c0.4,0.1,0.7,0.4,0.9,0.6
	l14.6,14.6c0.5,0.6,0.8,1.3,0.8,2c0,0.8-0.3,1.5-0.9,2c-0.5,0.5-1.3,0.8-2,0.9C51.9,29.1,51.2,28.8,50.6,28.3L50.6,28.3z"/>
<path class="st0" d="M11.8,70c-1.6,0-3.1-0.7-4.2-1.9C6.6,67,6,65.5,6,63.9c0-2.4,2.7-7.9,3.9-10.2c0.2-0.3,0.5-0.6,0.8-0.8
	c0.3-0.2,0.7-0.3,1.1-0.3c0.4,0,0.8,0.1,1.1,0.3c0.3,0.2,0.6,0.5,0.8,0.8c1.2,2.3,3.9,7.7,3.9,10.2c0,1.6-0.6,3.1-1.7,4.3
	C14.9,69.3,13.4,70,11.8,70z"/>
<path class="st0" d="M50,20.5c-0.4-0.4-1-0.6-1.5-0.6c-0.6,0-1.1,0.2-1.5,0.6L36.8,30.6h-0.1h-6l13.2-13.2c0.2-0.2,0.4-0.4,0.5-0.7
	c0.1-0.3,0.2-0.6,0.2-0.8c0-0.3-0.1-0.6-0.2-0.8c-0.1-0.3-0.3-0.5-0.5-0.7c-0.2-0.2-0.4-0.4-0.7-0.5c-0.3-0.1-0.6-0.2-0.8-0.2
	c-0.3,0-0.6,0.1-0.8,0.2c-0.3,0.1-0.5,0.3-0.7,0.5L20.1,34.9c-1.3,1.3-2.4,2.9-3,4.6l-2,5c-0.3,0.7-0.4,1.4-0.2,2.1s0.5,1.4,1,1.9
	c0.5,0.5,1.2,0.9,1.9,1c0.7,0.1,1.4,0.1,2.1-0.2l5-2c1.8-0.7,3.3-1.7,4.7-3l20.6-20.6c0.2-0.2,0.4-0.4,0.5-0.7
	c0.1-0.3,0.2-0.5,0.2-0.8s-0.1-0.6-0.2-0.8C50.5,21,50.3,20.7,50,20.5L50,20.5z"/>
</svg>
