<?xml version="1.0" encoding="utf-8"?>
<!-- Generator: Adobe Illustrator 24.3.0, SVG Export Plug-In . SVG Version: 6.00 Build 0)  -->
<svg version="1.1" id="Ebene_1" xmlns="http://www.w3.org/2000/svg" xmlns:xlink="http://www.w3.org/1999/xlink" x="0px" y="0px"
	 viewBox="0 0 70 70" style="enable-background:new 0 0 70 70;" xml:space="preserve">
<style type="text/css">
	.st0{fill:#3795D2;}
</style>
<path class="st0" d="M22.9,65.1C22.8,65.1,22.8,65.1,22.9,65.1C10.6,64.3,1,54.1,1,41.8C1,29.4,22.3,2.7,23.2,1.5
	c0.6-0.7,1.7-0.7,2.3,0c0.9,1.1,22.2,27.8,22.2,40.3c0,1.6-0.2,3.2-0.5,4.7c-0.2,0.8-1,1.3-1.7,1.1c-0.8-0.2-1.3-0.9-1.1-1.7
	c0.3-1.3,0.4-2.7,0.4-4.1c0-9.9-16-31.2-20.4-37c-4.5,5.8-20.4,27.1-20.4,37c0,10.7,8.4,19.7,19,20.3c0.8,0,1.4,0.7,1.4,1.5
	C24.3,64.5,23.6,65.1,22.9,65.1z"/>
<path class="st0" d="M34,66.8c-2,0-3.7-0.7-5-2c-1.3-1.4-2-3-2-5v0c0-2,0.7-3.7,2-5.1c1.3-1.4,3-2.1,5.1-2.1c1.2,0,2.2,0.2,3.1,0.6
	s1.6,0.9,2.4,1.6l-1.6,1.8c-1.2-1.1-2.5-1.7-3.9-1.7c-1.3,0-2.4,0.5-3.2,1.4c-0.9,0.9-1.3,2.1-1.3,3.4v0c0,1.4,0.4,2.5,1.3,3.5
	c0.9,0.9,1.9,1.4,3.2,1.4c0.8,0,1.5-0.1,2.1-0.4c0.6-0.3,1.2-0.7,1.9-1.3l1.6,1.6c-0.7,0.8-1.6,1.4-2.4,1.8
	C36.3,66.6,35.2,66.8,34,66.8z M42.2,66.6V52.8h6.2c1.6,0,2.8,0.4,3.6,1.2c0.6,0.6,0.9,1.4,0.9,2.3v0c0,1.4-0.7,2.4-2,3.1
	c0.9,0.3,1.6,0.7,2,1.2c0.5,0.5,0.7,1.2,0.7,2.1v0c0,1.2-0.5,2.1-1.4,2.8c-0.9,0.7-2.2,1-3.7,1H42.2z M50.5,56.7L50.5,56.7
	c0-0.6-0.2-1-0.6-1.3c-0.4-0.3-1-0.5-1.8-0.5h-3.5v3.7h3.3c0.8,0,1.5-0.2,1.9-0.5C50.2,57.8,50.5,57.4,50.5,56.7z M51.2,62.5
	L51.2,62.5c0-1.3-0.9-1.9-2.8-1.9h-3.8v3.8h4c0.8,0,1.5-0.2,1.9-0.5C51,63.6,51.2,63.2,51.2,62.5z M56.4,66.6V52.8h5.1
	c2.1,0,3.9,0.7,5.3,2c1.4,1.3,2.1,2.9,2.1,4.9v0c0,2-0.7,3.6-2.1,4.9c-1.4,1.3-3.1,2-5.3,2H56.4z M61.5,55h-2.7v9.4h2.7
	c1.4,0,2.6-0.4,3.5-1.3c0.9-0.9,1.3-2,1.3-3.3v0c0-1.4-0.4-2.5-1.3-3.4C64.1,55.4,62.9,55,61.5,55z"/>
</svg>
