<svg width="70" height="70" viewBox="0 0 70 70" fill="none" xmlns="http://www.w3.org/2000/svg">
<path d="M65.9984 66.4156L62.9017 48.2863C62.568 46.333 61.1823 44.7639 59.2851 44.1916L50.9327 41.6715C50.7597 39.6297 49.9226 37.7035 48.5294 36.1788C47.415 34.9593 46.0134 34.0713 44.4683 33.5813C44.7328 33.2879 44.9779 32.9954 45.2028 32.7094C47.189 30.1833 48.2524 27.4002 48.5231 25.5011H49.1675C50.8434 25.5011 52.2069 24.1377 52.2069 22.4617V20.9036C52.2069 19.7851 51.5777 18.7716 50.6315 18.2457V9.52512C50.6315 8.95896 50.1725 8.5 49.6064 8.5C49.0402 8.5 48.5814 8.95883 48.5814 9.52512V18.705C48.1822 18.7744 47.7058 18.8941 47.2186 19.0993C47.1687 19.1175 47.1201 19.1386 47.0742 19.1639C46.9641 19.214 46.8539 19.267 46.7442 19.3266V11.0657C46.7442 8.7835 44.8875 6.92686 42.6053 6.92686H39.7759C38.8 6.92686 37.8466 7.26687 37.0911 7.88457L36.8135 8.11152C36.3035 8.52852 35.6598 8.7582 35.001 8.7582C34.3421 8.7582 33.6983 8.52852 33.1884 8.11152L32.9108 7.88457C32.1553 7.26701 31.202 6.92686 30.2261 6.92686H27.3964C25.1142 6.92686 23.2575 8.7835 23.2575 11.0657V19.3266C23.1477 19.267 23.0375 19.214 22.9275 19.1639C22.8815 19.1386 22.8331 19.1175 22.7832 19.0993C22.296 18.8941 21.8195 18.7744 21.4204 18.705V8.06982C21.4204 4.75057 24.1209 2.0501 27.4402 2.0501H42.5614C45.8808 2.0501 48.5811 4.75057 48.5811 8.06982V9.68119C48.5811 10.2473 49.0401 10.7063 49.6061 10.7063C50.1721 10.7063 50.6312 10.2475 50.6312 9.68119V8.06982C50.6312 3.62018 47.011 0 42.5614 0H27.4402C22.9904 0 19.3703 3.62018 19.3703 8.06982V18.2458C18.4241 18.7718 17.7949 19.7851 17.7949 20.9037V22.4618C17.7949 24.1378 19.1584 25.5012 20.8343 25.5012H21.4787C21.7492 27.4004 22.8128 30.1834 24.799 32.7095C25.0237 32.9953 25.2687 33.2875 25.5328 33.5806C21.9808 34.7088 19.3906 37.9023 19.0691 41.6715L10.7164 44.1916C8.81919 44.7639 7.43341 46.333 7.09982 48.2863L5.84228 55.6485C5.74699 56.2066 6.12214 56.7361 6.68009 56.8314C7.23791 56.927 7.76769 56.5517 7.86312 55.9936L9.12066 48.6314C9.32246 47.4496 10.1608 46.5005 11.3086 46.1543L19.0339 43.8234V45.8511C17.2631 46.177 15.7563 47.3934 15.1357 49.0788C14.971 49.5261 14.8686 49.9945 14.8314 50.4708L14.0848 60.0541C14.0285 60.776 14.2782 61.4949 14.7697 62.026C15.2612 62.5573 15.9584 62.8622 16.6823 62.8622H17.9603C18.5265 62.8622 18.9855 62.4034 18.9855 61.8371C18.9855 61.2708 18.5265 60.8121 17.9603 60.8121H16.6823C16.5279 60.8121 16.3795 60.7473 16.2746 60.6338C16.1699 60.5206 16.1167 60.3675 16.1287 60.2137L16.8753 50.6302C16.8979 50.3416 16.9598 50.0579 17.0596 49.7871C17.4914 48.6147 18.6573 47.8208 19.9612 47.8116L20.1301 47.8104C20.138 47.8103 20.1458 47.8103 20.1536 47.8103C21.4208 47.8103 22.5426 48.5289 23.0158 49.646C23.1486 49.9592 23.2292 50.2904 23.2557 50.6302L24.0026 60.2138C24.0145 60.3675 23.9613 60.5206 23.8566 60.6339C23.7519 60.7472 23.6033 60.8121 23.4489 60.8121H22.1709C21.6047 60.8121 21.1458 61.2709 21.1458 61.8371C21.1458 62.4032 21.6047 62.8622 22.1709 62.8622H23.4489C24.1729 62.8622 24.8701 62.5574 25.3615 62.026C25.8531 61.4946 26.1029 60.7759 26.0466 60.0543L25.2997 50.4708C25.2559 49.91 25.1226 49.3633 24.9035 48.8461C24.2282 47.2523 22.7843 46.1442 21.0838 45.8444V43.2049L24.6076 42.1416C24.9282 42.8169 25.5636 44.2761 26.8221 47.4216C28.0904 50.5954 29.6669 54.6634 31.1789 58.6182C31.1897 58.6514 31.2021 58.6838 31.2161 58.7155C32.225 61.3557 33.2038 63.9416 34.0409 66.1723C34.1911 66.5723 34.5735 66.8373 35.0007 66.8373C35.4279 66.8373 35.8104 66.5723 35.9605 66.1723C36.7975 63.9416 37.7762 61.3557 38.7854 58.7155C38.7994 58.6838 38.8117 58.6512 38.8225 58.6182C40.3334 54.6658 41.9091 50.6003 43.1769 47.4275C44.437 44.2779 45.0729 42.8174 45.3937 42.1416L48.9174 43.2049V49.2595C46.4759 49.7338 44.6265 51.8871 44.6265 54.4653C44.6265 57.3899 47.0058 59.7693 49.9305 59.7693C52.8552 59.7693 55.2345 57.39 55.2345 54.4653C55.2345 51.8956 53.3973 49.7474 50.9675 49.2639V43.8236L58.693 46.1545C59.8407 46.5006 60.679 47.4497 60.8809 48.6315L63.9776 66.7609C64.029 67.0615 63.949 67.3554 63.7523 67.5886C63.5556 67.8215 63.2793 67.95 62.9743 67.95H7.02709C6.72207 67.95 6.44589 67.8217 6.24915 67.5886C6.05255 67.3554 5.97244 67.0616 6.02384 66.7609L7.86312 55.9936C7.95841 55.4355 7.58326 54.906 7.02531 54.8107C6.46749 54.715 5.93771 55.0905 5.84228 55.6485L4.003 66.4158C3.85056 67.3088 4.09816 68.2181 4.68222 68.9106C5.26656 69.603 6.12119 70 7.02709 70H62.9743C63.8802 70 64.735 69.603 65.3192 68.9105C65.9032 68.218 66.1508 67.3087 65.9984 66.4156ZM48.5934 20.7934C49.1396 20.6572 49.5781 20.6597 49.583 20.6598C49.7596 20.6622 49.9314 20.6209 50.0839 20.5409C50.1296 20.6545 50.1565 20.7766 50.1565 20.9037V22.4618C50.1565 23.0073 49.7127 23.4511 49.1672 23.4511H48.5934V20.7934ZM21.408 23.4511H20.8342C20.2887 23.4511 19.8449 23.0073 19.8449 22.4618V20.9037C19.8449 20.7766 19.872 20.6545 19.9175 20.541C20.0699 20.621 20.2416 20.6623 20.4184 20.6598C20.4262 20.6612 20.8634 20.6587 21.408 20.794V23.4511ZM23.4581 24.6005V21.9074C23.7687 22.0005 24.1085 21.9878 24.4221 21.857C24.9601 21.6325 25.3076 21.1112 25.3076 20.5286V11.0657C25.3076 9.91402 26.2447 8.97695 27.3964 8.97695H30.2258C30.73 8.97695 31.2226 9.15264 31.6129 9.47174L31.8905 9.69869C32.7656 10.4143 33.8702 10.8082 35.0007 10.8082C36.1312 10.8082 37.2358 10.4141 38.1109 9.69869L38.3885 9.47174C38.7787 9.15264 39.2714 8.97695 39.7756 8.97695H42.605C43.7567 8.97695 44.6938 9.91402 44.6938 11.0657V20.5287C44.6938 21.1112 45.0413 21.6326 45.5793 21.8571C45.759 21.932 45.9471 21.9684 46.1336 21.9684C46.2726 21.9684 46.4106 21.948 46.5433 21.9084V24.6005C46.5433 26.0971 45.5086 29.0035 43.591 31.4423C42.9558 32.2502 42.1393 33.1181 41.134 33.8766C41.1022 33.8979 41.0717 33.921 41.0426 33.9456C39.4852 35.0971 37.4827 35.9792 35.0007 35.9792C32.5187 35.9792 30.5162 35.0971 28.9587 33.9455C28.9296 33.921 28.8992 33.8979 28.8675 33.8767C27.8622 33.1181 27.0457 32.2502 26.4104 31.4423C24.4929 29.0037 23.4581 26.0971 23.4581 24.6005ZM41.7163 41.1619L35.0007 46.1814L28.2851 41.1619C28.951 40.3155 29.3241 39.229 29.3241 38.2594V36.607C30.9034 37.4563 32.7878 38.0294 35.0007 38.0294C37.2136 38.0294 39.0982 37.4563 40.6773 36.607V38.2594C40.6773 39.229 41.0504 40.3155 41.7163 41.1619ZM26.5743 40.0177C26.0269 39.8092 25.42 39.775 24.8459 39.9308C24.8208 39.9366 24.7962 39.9433 24.7722 39.9505L21.2308 41.019C21.8298 38.0738 24.2212 35.7297 27.274 35.2756V38.2594C27.274 38.9025 26.9869 39.5674 26.5743 40.0177ZM29.3564 48.2465C29.3545 48.2418 29.3526 48.237 29.3508 48.2323C29.2988 48.1009 29.2476 47.9713 29.1967 47.8432C29.1876 47.82 29.1784 47.7969 29.1692 47.7739C29.1195 47.6485 29.0701 47.5241 29.0214 47.4018C29.018 47.3931 29.0146 47.3847 29.0112 47.3759C28.8593 46.9941 28.7129 46.6278 28.5721 46.2768C28.5618 46.2514 28.5515 46.2256 28.5413 46.2003C28.5008 46.0996 28.461 46.0005 28.4215 45.9026C28.407 45.8667 28.3927 45.8311 28.3783 45.7956C28.34 45.7007 28.302 45.6064 28.2646 45.5141C28.2534 45.4865 28.2424 45.4597 28.2313 45.4322C28.1634 45.2646 28.097 45.1012 28.0321 44.9419C28.0146 44.8988 27.9967 44.855 27.9794 44.8124C27.9539 44.7504 27.9292 44.6899 27.9043 44.6291C27.8775 44.5635 27.8507 44.4984 27.8245 44.4344C27.8146 44.4105 27.8044 44.3852 27.7945 44.3614C27.7866 44.3423 27.7794 44.3246 27.7716 44.3056C27.6532 44.018 27.5406 43.7469 27.4339 43.4919C27.433 43.4898 27.4321 43.4878 27.4313 43.4857C27.3744 43.35 27.3188 43.2173 27.2653 43.091C27.2375 43.0255 27.2102 42.9611 27.1834 42.898L32.9591 47.2147L30.5457 48.24C30.5415 48.2418 30.5371 48.2435 30.5329 48.2454L29.5253 48.6735C29.4681 48.529 29.4122 48.3874 29.3564 48.2465ZM31.8023 54.523C31.5998 53.9976 31.3958 53.4692 31.1914 52.9413C30.8718 52.1157 30.5665 51.3306 30.2743 50.5828L30.6569 50.4202L32.2198 52.2371L31.8023 54.523ZM35.0205 62.8544C34.9911 62.7934 34.9561 62.7359 34.9157 62.6823C34.4525 61.458 33.8646 59.9088 33.2139 58.2043L34.171 52.9646H35.8305L36.7875 58.2043C36.1057 59.99 35.4933 61.6046 35.0205 62.8544ZM36.2149 50.9146H33.7865L32.6374 49.5789L35.0007 48.5749L37.364 49.5789L36.2149 50.9146ZM38.81 52.9413C38.6056 53.4692 38.4016 53.9976 38.1991 54.523L37.7816 52.2369L39.3445 50.4201L39.7271 50.5827C39.4349 51.3305 39.1296 52.1157 38.81 52.9413ZM42.7362 43.091C42.6855 43.2108 42.6328 43.3364 42.579 43.4647C42.572 43.4813 42.5649 43.4982 42.558 43.515C42.5048 43.6421 42.4506 43.772 42.3946 43.9072C42.3909 43.9161 42.3871 43.9255 42.3834 43.9346C42.335 44.0512 42.2854 44.1715 42.2349 44.2941C42.2255 44.3171 42.2166 44.3383 42.2071 44.3614C42.1959 44.3889 42.1839 44.418 42.1726 44.4458C42.1501 44.5004 42.1273 44.5562 42.1043 44.612C42.0762 44.6808 42.0481 44.7493 42.0193 44.8197C42.0101 44.8421 42.0007 44.8655 41.9914 44.888C41.92 45.0629 41.8468 45.2431 41.7718 45.4282C41.7601 45.4572 41.7485 45.4856 41.7367 45.515C41.6996 45.6065 41.6619 45.6999 41.624 45.7938C41.6093 45.8306 41.5944 45.8672 41.5795 45.9044C41.5404 46.0014 41.5009 46.0995 41.4609 46.199C41.4497 46.2268 41.4384 46.2552 41.4272 46.2831C41.2881 46.6293 41.1439 46.9904 40.9942 47.3666C40.9893 47.3791 40.9843 47.3912 40.9794 47.4038C40.931 47.5254 40.8821 47.6489 40.8326 47.7735C40.8234 47.7967 40.8141 47.82 40.8048 47.8434C40.7537 47.9721 40.7021 48.1023 40.6499 48.2345C40.649 48.237 40.648 48.2394 40.6471 48.2418C40.5907 48.3842 40.5341 48.5275 40.4764 48.6738L39.4679 48.2453C39.4643 48.2438 39.4607 48.2423 39.4573 48.2408L37.0426 47.215L42.8183 42.8982C42.7912 42.9611 42.7639 43.0254 42.7362 43.091ZM45.2292 39.9506L45.226 39.9496C44.6313 39.7712 43.9969 39.8007 43.4272 40.0177C43.0145 39.5674 42.7275 38.9025 42.7275 38.2594V35.2741C45.7994 35.7269 48.1837 38.0491 48.7748 41.0203L45.2292 39.9506ZM53.1844 54.4653C53.1844 56.2596 51.7247 57.7192 49.9305 57.7192C48.1364 57.7192 46.6766 56.2596 46.6766 54.4653C46.6766 52.671 48.1364 51.2114 49.9305 51.2114C51.7247 51.2114 53.1844 52.671 53.1844 54.4653Z" fill="#3B95D2"/>
</svg>
