<?xml version="1.0" encoding="utf-8"?>
<!-- Generator: Adobe Illustrator 24.3.0, SVG Export Plug-In . SVG Version: 6.00 Build 0)  -->
<svg version="1.1" id="Ebene_1" xmlns="http://www.w3.org/2000/svg" xmlns:xlink="http://www.w3.org/1999/xlink" x="0px" y="0px"
	 viewBox="0 0 70 70" style="enable-background:new 0 0 70 70;" xml:space="preserve">
<style type="text/css">
	.st0{clip-path:url(#SVGID_2_);}
	.st1{fill:#3795D2;}
	.st2{fill:#F9F9FB;stroke:#3795D2;stroke-width:0.4;}
</style>
<g>
	<defs>
		<rect id="SVGID_1_" y="0" width="70" height="70"/>
	</defs>
	<clipPath id="SVGID_2_">
		<use xlink:href="#SVGID_1_"  style="overflow:visible;"/>
	</clipPath>
	<g class="st0">
		<path class="st1" d="M37.7,53.1c0-0.4-0.4-0.7-0.7-0.7c-5.8,0.1-10.1,3.2-13.1,6.9c2.9-9.6,0.4-14.1-0.7-16
			c-0.1-0.2-0.2-0.4-0.3-0.5c-0.1-0.4-0.5-0.5-0.9-0.4c-0.4,0.1-0.6,0.6-0.4,0.9c0.1,0.2,0.2,0.4,0.4,0.8c1.2,2.1,4.4,7.8-2.1,21.7
			c-0.2,0.4,0,0.8,0.3,0.9c0.3,0.2,0.8,0,0.9-0.4c2.6-5.6,7.5-12.3,15.8-12.5c0,0,0.1,0,0.1,0C37.4,53.8,37.7,53.5,37.7,53.1z"/>
		<path class="st1" d="M51.5,44.5c0.8-0.7,1.5-1.6,2-2.7c1.5-3.1,0.8-6.7-1.4-9.2c1.3-0.7,2.4-1.8,3.1-3.3c1.1-2.4,0.8-5.1-0.6-7.1
			c0.6-0.6,1.1-1.3,1.4-2c1.6-3.5,0.2-7.5-3-9.3c1.2-2.9-0.1-6.3-3-7.6c-2.9-1.3-6.3-0.2-7.8,2.6c-3.5-1.4-7.5,0.2-9.1,3.7
			c-0.4,0.8-0.6,1.6-0.6,2.4c-2.4,0.2-4.7,1.7-5.8,4.1c-0.7,1.4-0.8,3-0.5,4.5c-3.3-0.1-6.4,1.7-7.9,4.8c-0.5,1-0.7,2.1-0.8,3.2
			c-2.4,0.6-4.5,2.2-5.6,4.6c-2,4.2-0.2,9.2,4,11.1c1,0.5,2.1,0.7,3.2,0.8c-0.8,4.7,1.5,9.5,6,11.6c4.5,2.1,9.7,0.8,12.8-2.8
			c0.7,0.8,1.6,1.5,2.7,2c4.2,2,9.2,0.1,11.1-4.1C52.7,49.4,52.6,46.7,51.5,44.5z"/>
		<path class="st2" d="M44.8,41.5c1.2-0.4,2.5-0.3,3.7,0.2c1.2,0.5,2.1,1.3,2.8,2.4v0c0.2,0.3,0.1,0.6-0.2,0.8
			c-0.2,0.1-0.3,0.1-0.5,0c-0.1,0-0.2-0.1-0.3-0.2l0,0c-0.5-0.9-1.3-1.5-2.2-1.9c-0.9-0.4-2-0.4-2.9-0.1c-0.3,0.1-0.6-0.1-0.7-0.4
			l0,0C44.3,41.9,44.5,41.6,44.8,41.5z M44.8,41.5l-0.1-0.2L44.8,41.5z"/>
		<path class="st2" d="M44.9,29.4c1.2-0.4,2.5-0.3,3.7,0.2c1.2,0.5,2.1,1.3,2.8,2.4l0,0c0.2,0.3,0.1,0.6-0.2,0.8
			c-0.2,0.1-0.3,0.1-0.5,0c-0.1,0-0.2-0.1-0.3-0.2l0,0c-0.5-0.9-1.3-1.5-2.2-1.9c-0.9-0.4-2-0.4-2.9-0.1c-0.3,0.1-0.6-0.1-0.7-0.4v0
			C44.5,29.8,44.6,29.5,44.9,29.4z M44.9,29.4l-0.1-0.2L44.9,29.4z"/>
		<path class="st2" d="M41.3,13.4c1.2-0.4,2.5-0.3,3.7,0.2c1.2,0.5,2.1,1.3,2.8,2.4l0,0c0.2,0.3,0.1,0.6-0.2,0.8
			c-0.2,0.1-0.3,0.1-0.5,0c-0.1,0-0.2-0.1-0.3-0.2h0c-0.5-0.9-1.3-1.5-2.2-1.9c-0.9-0.4-2-0.4-2.9-0.1c-0.3,0.1-0.6-0.1-0.7-0.4l0,0
			C40.9,13.8,41,13.5,41.3,13.4z M41.3,13.4l-0.1-0.2L41.3,13.4z"/>
		<path class="st2" d="M29,40.5c1.2-0.4,2.5-0.3,3.7,0.2c1.2,0.5,2.1,1.3,2.8,2.4l0,0c0.2,0.3,0.1,0.6-0.2,0.8
			c-0.2,0.1-0.3,0.1-0.5,0c-0.1,0-0.2-0.1-0.3-0.2l0,0c-0.5-0.9-1.3-1.5-2.2-1.9c-0.9-0.4-2-0.4-2.9-0.1c-0.3,0.1-0.6-0.1-0.7-0.4v0
			C28.5,40.9,28.7,40.6,29,40.5z M29,40.5l-0.1-0.2L29,40.5z"/>
		<path class="st2" d="M27.2,20.1c1.2-0.4,2.5-0.3,3.7,0.2c1.2,0.5,2.1,1.3,2.8,2.4l0,0c0.2,0.3,0.1,0.6-0.2,0.8
			c-0.2,0.1-0.3,0.1-0.5,0c-0.1,0-0.2-0.1-0.3-0.2l0,0c-0.5-0.9-1.3-1.5-2.2-1.9c-0.9-0.4-2-0.4-2.9-0.1c-0.3,0.1-0.6-0.1-0.7-0.4v0
			C26.7,20.5,26.9,20.2,27.2,20.1z M27.2,20.1l-0.1-0.2L27.2,20.1z"/>
		<path class="st2" d="M22.8,32.2L22.8,32.2c0.1,0.1,0.1,0.2,0.2,0.3c0.1,0.1,0.3,0.1,0.5,0c0.3-0.1,0.4-0.4,0.3-0.7l0,0
			c-0.5-1.2-1.4-2.1-2.5-2.7c-1.1-0.6-2.4-0.8-3.6-0.6c-0.3,0-0.5,0.3-0.5,0.6v0c0,0.3,0.3,0.5,0.6,0.5L22.8,32.2z M22.8,32.2
			c-0.4-0.9-1.1-1.7-2-2.2 M22.8,32.2l-2-2.2 M20.8,30.1C20,29.6,19,29.4,18,29.6L20.8,30.1z"/>
	</g>
</g>
</svg>
