<svg width="64" height="64" viewBox="0 0 64 64" fill="none" xmlns="http://www.w3.org/2000/svg">
<g clip-path="url(#clip0_1034_10)">
<path d="M56.9428 19.7672C56.9428 11.4183 53.2665 4.83878 46.8549 1.71482C42.5831 -0.365883 37.7382 -0.525491 33.2728 1.08582C33.2728 1.08582 32.0452 1.55231 30.9954 1.55231C29.865 1.55231 28.5834 1.57625 26.5667 3.41247C24.6148 5.18992 24.3196 6.28106 24.1158 7.62829C23.9898 8.46115 23.871 9.24686 22.6622 10.7327C22.0876 11.4386 22.0451 12.4303 22.5491 13.3212C23.115 14.3209 24.4398 15.275 26.1448 15.275C26.3788 15.275 26.62 15.2575 26.8677 15.2191C28.5762 14.9536 29.7477 14.0126 30.989 13.0158C31.7579 12.3969 32.5542 11.7578 33.5997 11.1476C34.9648 10.3518 35.5185 9.18447 35.6661 8.08172C38.4568 7.17559 41.3195 7.41863 43.8006 8.85727C47.3366 10.9068 49.4483 14.9855 49.4483 19.7672C49.4483 29.6513 38.8535 34.9851 33.5255 37.0433C34.3874 35.9551 35.3644 34.9314 36.4854 34.0122C36.5603 33.9513 36.6208 33.8794 36.6755 33.804C40.4332 30.4943 42.8128 25.6357 42.8128 20.2243C42.8128 19.0627 42.6998 17.8925 42.4758 16.7448C42.3765 16.2341 41.9322 15.8662 41.416 15.8662H8.3968C7.88056 15.8662 7.43632 16.2341 7.33696 16.7448C7.11304 17.8925 7 19.0627 7 20.2243C7 25.685 9.42352 30.5835 13.2402 33.8947C13.2777 33.9353 13.3151 33.9759 13.3583 34.0122C16.5414 36.6203 18.5927 40.0592 19.9132 43.4095C18.8872 44.2822 17.111 46.133 17.111 48.4923C17.111 51.5299 19.33 53.2645 22.3194 54.6306C22.4022 55.8661 22.4195 56.8782 22.4138 57.5703H22.0012C19.0672 57.5703 16.6797 59.9753 16.6797 62.9324C16.6797 63.5338 17.1635 64.0206 17.7597 64.0206H32.0495C32.6457 64.0206 33.1295 63.5338 33.1295 62.9324C33.1295 59.976 30.7427 57.5703 27.808 57.5703H27.4271C27.425 57.2961 27.4257 56.9754 27.4329 56.6069C31.2842 58.0063 35.4674 59.6626 37.9773 62.7859C38.1882 63.0478 38.5 63.1892 38.8175 63.1892C38.9838 63.1892 39.153 63.1501 39.3093 63.0695C39.7643 62.8352 39.9933 62.3114 39.8594 61.8152C38.243 55.8458 32.326 52.6936 27.9664 50.7427C28.2911 48.7208 28.8117 46.4609 29.6325 44.1894C33.7682 43.3957 56.9428 38.1228 56.9428 19.7672ZM51.6069 19.7672C51.6069 14.1976 49.0905 9.41372 44.8756 6.97027C41.9841 5.29439 38.6865 4.94035 35.4666 5.8639C35.445 5.79715 35.4227 5.73186 35.3997 5.67164C35.183 5.11447 34.5659 4.84096 34.0094 5.05498C33.455 5.26827 33.177 5.89582 33.3844 6.4559C33.4564 6.65033 34.041 8.37482 32.5154 9.265C31.331 9.95567 30.4331 10.6775 29.6411 11.3138C28.5014 12.2294 27.6777 12.891 26.5372 13.0673C25.8554 13.1739 25.1627 12.9875 24.6954 12.5689C24.4355 12.336 24.352 12.1183 24.3311 12.1125C25.9151 10.1653 26.1002 8.9407 26.2492 7.95694C26.3846 7.06604 26.481 6.42253 28.0132 5.02741C29.4222 3.74474 30.0904 3.72806 31.0156 3.72806C32.2346 3.72806 33.3369 3.37547 33.7545 3.21731C37.7505 1.70684 42.0993 1.81639 45.9131 3.67437C51.5493 6.42035 54.7814 12.2859 54.7814 19.7672C54.7814 34.9749 36.705 40.3718 30.6398 41.7553C30.909 41.1786 31.1992 40.6062 31.5153 40.0432C34.5551 39.1552 51.6069 33.558 51.6069 19.7672ZM9.16 20.2243C9.16 19.498 9.2104 18.7675 9.31048 18.0427H40.5009C40.601 18.7675 40.6514 19.4973 40.6514 20.2243C40.6514 20.3287 40.4562 22.7127 40.4562 22.7127H9.16H9.35584C9.35368 22.609 9.16 20.3287 9.16 20.2243ZM9.35584 22.7127H9.16H40.4562C39.2675 30.2824 32.7479 36.0893 24.9057 36.0893C17.0634 36.0893 10.5446 30.2824 9.35584 22.7127ZM27.8094 59.7468C29.1738 59.7468 30.3388 60.6217 30.7809 61.8442H19.0305C19.4726 60.6217 20.6375 59.7468 22.0019 59.7468H27.8094ZM25.2671 57.5703H24.5759C24.5795 57.0458 24.5723 56.3609 24.5363 55.5447C24.7876 55.6405 25.0396 55.7355 25.2952 55.8299C25.27 56.5227 25.2642 57.1096 25.2671 57.5703ZM34.5256 57.2874C32.2252 56.0243 29.7088 55.116 27.3616 54.2686C22.3461 52.4563 19.2724 51.2092 19.2724 48.493C19.2724 47.4178 19.9888 46.3847 20.698 45.6432C21.1134 46.9818 21.4223 48.2717 21.6506 49.4477C21.6635 49.513 21.6822 49.5783 21.7067 49.6407C22.0674 50.5534 23.2238 51.0532 25.5292 52.0479C28.1082 53.1622 31.8069 54.7605 34.5256 57.2874ZM25.9252 49.8504C25.018 49.4564 24.059 49.0262 23.7198 48.7708C23.3454 46.9107 22.8566 45.1485 22.259 43.4944C22.2424 43.4312 22.2194 43.3681 22.1906 43.3072C21.3784 41.1039 20.3675 39.1015 19.1788 37.3146C20.9788 37.9284 22.9034 38.2665 24.9057 38.2665C26.9152 38.2665 28.847 37.9255 30.6513 37.3081C27.9563 41.3629 26.5998 45.9748 25.9252 49.8504Z" fill="#3795D2"/>
<path d="M9.56995 20.5088H8.56995V22.5088H9.56995V20.5088ZM16.0937 22.5088C16.646 22.5088 17.0937 22.0611 17.0937 21.5088C17.0937 20.9565 16.646 20.5088 16.0937 20.5088V22.5088ZM9.56995 22.5088H16.0937V20.5088H9.56995V22.5088Z" fill="#3795D2"/>
<path d="M39.8207 22.5088H40.8207V20.5088H39.8207V22.5088ZM20.875 20.5088C20.3227 20.5088 19.875 20.9565 19.875 21.5088C19.875 22.0611 20.3227 22.5088 20.875 22.5088V20.5088ZM39.8207 20.5088H20.875V22.5088H39.8207V20.5088Z" fill="#3795D2"/>
</g>
<defs>
<clipPath id="clip0_1034_10">
<rect width="64" height="64" fill="white"/>
</clipPath>
</defs>
</svg>
