<svg width="70" height="70" viewBox="0 0 70 70" fill="none" xmlns="http://www.w3.org/2000/svg">
<g clip-path="url(#clip0)">
<path d="M25.1097 49.0604C24.5433 49.0604 24.0843 49.5194 24.0843 50.0858V51.9477C24.0843 52.5141 24.5433 52.973 25.1097 52.973C25.6761 52.973 26.1351 52.5141 26.1351 51.9477V50.0858C26.1351 49.5194 25.676 49.0604 25.1097 49.0604ZM66.4496 52.652C67.016 52.652 67.475 52.1931 67.475 51.6266V16.9668H68.0178C69.1108 16.9668 70.0002 16.0774 70.0002 14.9844V11.2658C70.0002 10.1727 69.1108 9.28334 68.0178 9.28334H47.551C45.9045 3.91467 40.9011 0 35 0C29.099 0 24.0958 3.91467 22.4491 9.2832H1.98247C0.889405 9.2832 4.90844e-05 10.1726 4.90844e-05 11.2656V14.9844C-0.00911107 16.3089 1.26538 17.1619 2.52524 16.9668V62.3163C1.25308 62.1405 4.90844e-05 62.9508 4.90844e-05 64.2987V68.0176C4.90844e-05 69.1106 0.889405 70 1.98247 70H68.0176C69.1107 70 70.0001 69.1106 70.0001 68.0176V64.2987C70.002 62.9263 68.7411 62.15 67.4749 62.3163V51.5254C67.4749 50.959 67.0159 50.5 66.4495 50.5C65.883 50.5 65.4241 50.959 65.4241 51.5254V62.3163H33.3389V35.1094C33.3389 33.4132 31.9589 32.0332 30.2627 32.0332H11.7538C10.0576 32.0332 8.67759 33.4132 8.67759 35.1094V62.3163H4.57603V16.9668H8.15901C8.72544 16.9668 9.1844 16.5078 9.1844 15.9414C9.1844 15.375 8.72544 14.916 8.15901 14.916H2.05083V11.3341H21.9977C21.9176 11.9198 21.875 12.5176 21.875 13.125C21.875 13.7324 21.9174 14.3302 21.9977 14.916H8.02539C7.45896 14.916 7 15.375 7 15.9414C7 16.5078 7.45896 16.9668 8.02539 16.9668H22.4491C24.0958 22.3353 29.0991 26.25 35 26.25C40.901 26.25 45.9043 22.3353 47.551 16.9668H65.4241V51.6266C65.4242 52.1929 65.8832 52.652 66.4496 52.652ZM22.0338 34.084H30.2627C30.8282 34.084 31.2881 34.5439 31.2881 35.1094V62.3163H22.0338V34.084ZM10.7284 35.1094C10.7284 34.5439 11.1883 34.084 11.7538 34.084H19.9829V62.3163H10.7284V35.1094ZM66.4469 64.3671L66.4495 64.3672L66.4521 64.3671H67.9493V67.9492H2.05083V64.3671H66.4469ZM35 24.1992C28.8938 24.1992 23.9258 19.2313 23.9258 13.125C23.9258 7.01873 28.8938 2.05078 35 2.05078C41.1063 2.05078 46.0743 7.01873 46.0743 13.125C46.0743 19.2313 41.1063 24.1992 35 24.1992ZM48.0024 14.916C48.0827 14.3302 48.125 13.7326 48.125 13.125C48.125 12.5174 48.0827 11.9198 48.0024 11.334H67.9493V14.916H48.0024ZM34.6911 8.13586L30.011 12.8159C28.5605 14.249 28.554 16.6708 30.011 18.114C31.4445 19.5475 33.8759 19.5638 35.3093 18.1141L39.9893 13.4341C41.438 11.998 41.4189 9.56553 39.9893 8.136C38.5431 6.68992 36.1257 6.68773 34.6911 8.13586ZM33.859 16.664C33.21 17.3194 32.1075 17.3168 31.4612 16.6641C30.8059 16.0152 30.8058 14.9151 31.4612 14.2662L33.0761 12.6513L35.4739 15.049L33.859 16.664ZM38.539 11.9839L36.9241 13.5989L34.5263 11.2011L36.1412 9.58617C36.7893 8.92951 37.8865 8.93348 38.5392 9.58617C39.1884 10.2354 39.1949 11.3352 38.539 11.9839ZM16.9066 49.0604C16.3401 49.0604 15.8812 49.5194 15.8812 50.0858V51.9477C15.8812 52.5141 16.3401 52.973 16.9066 52.973C17.473 52.973 17.9319 52.5141 17.9319 51.9477V50.0858C17.9319 49.5194 17.4728 49.0604 16.9066 49.0604ZM40.5162 32.0335C38.8201 32.0335 37.4401 33.4135 37.4401 35.1096V46.416C37.4401 48.1121 38.8201 49.4922 40.5162 49.4922H58.2465C59.9426 49.4922 61.3226 48.1121 61.3226 46.416V35.1096C61.3226 33.4135 59.9426 32.0335 58.2465 32.0335H40.5162ZM48.356 47.4414H40.5162C39.9508 47.4414 39.4908 46.9815 39.4908 46.416V41.7882H48.356V47.4414ZM48.356 39.7376H39.4908V35.1096C39.4908 34.5442 39.9508 34.0843 40.5162 34.0843H48.356V39.7376ZM59.2719 46.416C59.2719 46.9815 58.8119 47.4414 58.2465 47.4414H50.4067V41.7882H59.2719V46.416ZM59.2719 35.1096V39.7376H50.4067V34.0843H58.2465C58.8118 34.0843 59.2719 34.5442 59.2719 35.1096Z" fill="#3B95D2"/>
</g>
<defs>
<clipPath id="clip0">
<rect width="70" height="70" fill="white"/>
</clipPath>
</defs>
</svg>
