<svg width="70" height="70" viewBox="0 0 70 70" fill="none" xmlns="http://www.w3.org/2000/svg">
<path d="M21.875 64.0791C21.8459 64.0791 21.8137 64.0791 21.7875 64.0762C9.56959 63.3266 0 53.1154 0 40.8334C0 28.3879 21.2887 1.6771 22.1929 0.548345C22.75 -0.142905 23.9137 -0.142905 24.4709 0.548345C25.3779 1.6771 46.6666 28.3879 46.6666 40.8334C46.6666 42.4609 46.5121 43.995 46.2 45.5291C46.0338 46.3196 45.2463 46.8154 44.4762 46.6637C43.6859 46.5004 43.1813 45.7304 43.3387 44.9429C43.6159 43.6041 43.75 42.2596 43.75 40.8334C43.75 30.9459 27.7841 9.5871 23.3334 3.82668C18.8825 9.5871 2.91666 30.9487 2.91666 40.8334C2.91666 51.5784 11.2817 60.5091 21.9625 61.1654C22.7675 61.215 23.3771 61.9062 23.3304 62.7113C23.2809 63.4841 22.6421 64.0791 21.875 64.0791Z" fill="#3795D2"/>
<path d="M32.9372 66.5821V55.0452H28.5469V52.8008H39.7491V55.0452H35.3588V66.5821H32.9372ZM42.2599 66.5821V52.8008H44.6815V58.5299H51.2571V52.8008H53.6787V66.5821H51.2571V60.7743H44.6815V66.5821H42.2599ZM63.6162 66.8183C61.6212 66.8183 59.9543 66.1358 58.6156 64.7708C57.2768 63.4058 56.6075 61.7258 56.6075 59.7308V59.6915C56.6075 57.6965 57.2768 56.0099 58.6156 54.6318C59.9543 53.2536 61.6475 52.5646 63.695 52.5646C64.8893 52.5646 65.9065 52.7483 66.7465 53.1158C67.5865 53.4833 68.374 54.0149 69.109 54.7105L67.5537 56.5021C66.32 55.3733 65.0271 54.809 63.6753 54.809C62.389 54.809 61.3128 55.2815 60.4465 56.2265C59.5803 57.1583 59.1471 58.3002 59.1471 59.6521V59.6915C59.1471 61.0565 59.5803 62.2115 60.4465 63.1565C61.3128 64.1015 62.3956 64.574 63.695 64.574C64.4825 64.574 65.1781 64.4296 65.7818 64.1408C66.3856 63.8521 67.009 63.4058 67.6521 62.8021L69.2075 64.3771C68.4593 65.1777 67.6456 65.788 66.7662 66.208C65.8868 66.6149 64.8368 66.8183 63.6162 66.8183Z" fill="#3795D2"/>
</svg>
